<svg width="42" height="42" viewBox="0 0 42 42" fill="none" xmlns="http://www.w3.org/2000/svg">
<path fill-rule="evenodd" clip-rule="evenodd" d="M28.0001 13.741V17C28.394 17 28.7841 17.0776 29.1481 17.2284C29.5121 17.3791 29.8428 17.6001 30.1214 17.8787C30.4 18.1572 30.6209 18.488 30.7717 18.8519C30.9225 19.2159 31.0001 19.606 31.0001 20C31.0001 20.394 30.9225 20.7841 30.7717 21.148C30.6209 21.512 30.4 21.8427 30.1214 22.1213C29.8428 22.3999 29.5121 22.6209 29.1481 22.7716C28.7841 22.9224 28.394 23 28.0001 23V26C28.0001 27.648 26.1191 28.589 24.8001 27.6L22.7401 26.054C21.6389 25.2284 20.3568 24.6771 19.0001 24.446V27.29C19.0002 27.9437 18.7639 28.5755 18.335 29.0688C17.906 29.5621 17.3131 29.8837 16.6657 29.9743C16.0182 30.0649 15.3599 29.9184 14.8119 29.5618C14.264 29.2053 13.8634 28.6626 13.6841 28.034L12.1141 22.538C11.5491 21.8708 11.1814 21.0592 11.0523 20.1945C10.9233 19.3298 11.038 18.4462 11.3835 17.6431C11.7291 16.84 12.2918 16.1492 13.0084 15.6484C13.725 15.1475 14.5671 14.8565 15.4401 14.808L18.4581 14.64C19.9347 14.5578 21.3707 14.1263 22.6481 13.381L24.9921 12.013C26.3261 11.236 28.0001 12.197 28.0001 13.741ZM14.6341 24.078L15.6071 27.485C15.6539 27.6499 15.7588 27.7923 15.9024 27.8859C16.0461 27.9795 16.2187 28.018 16.3885 27.9942C16.5583 27.9704 16.7137 27.886 16.8261 27.7566C16.9385 27.6272 17.0003 27.4614 17.0001 27.29V24.28L15.4401 24.193C15.1686 24.1779 14.8989 24.1395 14.6341 24.078ZM26.0001 13.741L23.6551 15.11C22.2304 15.9404 20.6419 16.4503 19.0001 16.604V22.423C20.7871 22.669 22.4881 23.366 23.9401 24.454L26.0001 26V13.741ZM17.0001 16.724L15.5501 16.804C14.8755 16.8412 14.2394 17.13 13.7674 17.6133C13.2953 18.0966 13.0216 18.7393 13.0003 19.4146C12.9789 20.0898 13.2115 20.7485 13.6521 21.2607C14.0926 21.7728 14.7092 22.1012 15.3801 22.181L15.5501 22.196L17.0001 22.276V16.724ZM28.0001 19V21C28.2549 20.9997 28.5001 20.9021 28.6854 20.7271C28.8708 20.5522 28.9823 20.313 28.9972 20.0586C29.0122 19.8042 28.9294 19.5536 28.7658 19.3582C28.6022 19.1627 28.3701 19.0371 28.1171 19.007L28.0001 19Z" fill="white"/>
</svg>
