<svg width="42" height="42" viewBox="0 0 42 42" fill="none" xmlns="http://www.w3.org/2000/svg">

<path d="M18.0005 19.4983C18.0005 19.2994 18.0795 19.1086 18.2202 18.9679C18.3608 18.8273 18.5516 18.7483 18.7505 18.7483H23.2505C23.4494 18.7483 23.6402 18.8273 23.7808 18.9679C23.9215 19.1086 24.0005 19.2994 24.0005 19.4983C24.0005 19.6972 23.9215 19.8879 23.7808 20.0286C23.6402 20.1692 23.4494 20.2483 23.2505 20.2483H18.7505C18.5516 20.2483 18.3608 20.1692 18.2202 20.0286C18.0795 19.8879 18.0005 19.6972 18.0005 19.4983ZM18.7505 21.7483C18.5516 21.7483 18.3608 21.8273 18.2202 21.9679C18.0795 22.1086 18.0005 22.2994 18.0005 22.4983C18.0005 22.6972 18.0795 22.8879 18.2202 23.0286C18.3608 23.1692 18.5516 23.2483 18.7505 23.2483H21.7505C21.9494 23.2483 22.1402 23.1692 22.2808 23.0286C22.4215 22.8879 22.5005 22.6972 22.5005 22.4983C22.5005 22.2994 22.4215 22.1086 22.2808 21.9679C22.1402 21.8273 21.9494 21.7483 21.7505 21.7483H18.7505ZM12.0005 20.9983C12.0009 19.0168 12.6552 17.0909 13.8618 15.5193C15.0684 13.9476 16.76 12.8181 18.6741 12.3059C20.5882 11.7937 22.6178 11.9275 24.4481 12.6865C26.2784 13.4455 27.807 14.7873 28.7969 16.5038C29.7868 18.2202 30.1826 20.2153 29.9229 22.1797C29.6632 24.144 28.7625 25.9677 27.3605 27.3679C25.9585 28.7682 24.1337 29.6666 22.169 29.9238C20.2044 30.1811 18.2097 29.7828 16.4945 28.7908L12.9875 29.9608C12.858 30.004 12.719 30.0111 12.5857 29.9812C12.4525 29.9512 12.3299 29.8855 12.2312 29.791C12.1326 29.6965 12.0616 29.5769 12.026 29.445C11.9903 29.3132 11.9914 29.1741 12.029 29.0428L13.097 25.3063C12.3755 23.9851 11.9984 22.5036 12.0005 20.9983ZM21.0005 13.4983C19.6763 13.4982 18.3756 13.8487 17.2308 14.5142C16.086 15.1797 15.1377 16.1365 14.4825 17.2873C13.8273 18.438 13.4884 19.7418 13.5004 21.0659C13.5123 22.3901 13.8746 23.6875 14.5505 24.8263C14.6025 24.9142 14.636 25.0119 14.6489 25.1133C14.6618 25.2146 14.6538 25.3176 14.6255 25.4158L13.862 28.0858L16.349 27.2578C16.4546 27.2225 16.5668 27.2112 16.6773 27.2247C16.7878 27.2382 16.894 27.2761 16.988 27.3358C17.9709 27.9578 19.085 28.3427 20.2423 28.46C21.3996 28.5773 22.5683 28.4239 23.656 28.0118C24.7438 27.5996 25.7207 26.9401 26.5097 26.0854C27.2987 25.2307 27.8781 24.2042 28.202 23.087C28.526 21.9698 28.5856 20.7926 28.3763 19.6484C28.1669 18.5042 27.6943 17.4244 26.9958 16.4943C26.2972 15.5642 25.3919 14.8093 24.3514 14.2893C23.3109 13.7694 22.1637 13.4985 21.0005 13.4983Z" fill="white"/>
</svg>
