<svg width="42" height="42" viewBox="0 0 42 42" fill="none" xmlns="http://www.w3.org/2000/svg">
<path d="M24.2417 31.9828C23.9765 31.9828 23.7221 31.8775 23.5346 31.6899C23.3471 31.5024 23.2417 31.248 23.2417 30.9828V28.3828C23.2728 28.0837 23.2408 27.7815 23.1478 27.4955C23.0547 27.2096 22.9028 26.9464 22.7017 26.7228C22.5772 26.5878 22.4923 26.4211 22.4563 26.241C22.4203 26.0609 22.4346 25.8744 22.4976 25.7018C22.5606 25.5293 22.6699 25.3775 22.8135 25.263C22.9571 25.1485 23.1295 25.0758 23.3117 25.0528C25.7517 24.7628 28.0017 23.9828 28.0017 19.7528C28.0025 18.9629 27.7693 18.1904 27.3317 17.5328C26.9279 16.9274 26.7804 16.1867 26.9217 15.4728C27.0118 15.0071 27.0118 14.5285 26.9217 14.0628C26.1729 14.316 25.4679 14.6837 24.8317 15.1528C24.7114 15.2382 24.5737 15.296 24.4285 15.3219C24.2833 15.3478 24.1341 15.3413 23.9917 15.3028C22.187 14.7929 20.2764 14.7929 18.4717 15.3028C18.3293 15.3413 18.1801 15.3478 18.0349 15.3219C17.8897 15.296 17.752 15.2382 17.6317 15.1528C16.9916 14.6783 16.2791 14.3102 15.5217 14.0628C15.4266 14.528 15.4266 15.0076 15.5217 15.4728C15.6528 16.1957 15.4987 16.9412 15.0917 17.5528C14.656 18.215 14.4231 18.9901 14.4217 19.7828C14.4217 23.6728 16.3017 24.7128 19.1217 25.0728C19.3062 25.0957 19.4807 25.1696 19.6256 25.2862C19.7704 25.4028 19.8799 25.5574 19.9417 25.7328C19.9998 25.903 20.011 26.0857 19.9741 26.2617C19.9371 26.4376 19.8534 26.6004 19.7317 26.7328C19.5372 26.9407 19.3879 27.1867 19.2932 27.4552C19.1986 27.7237 19.1606 28.0089 19.1817 28.2928V30.9828C19.1817 31.248 19.0763 31.5024 18.8888 31.6899C18.7013 31.8775 18.4469 31.9828 18.1817 31.9828C17.9165 31.9828 17.6621 31.8775 17.4746 31.6899C17.2871 31.5024 17.1817 31.248 17.1817 30.9828V30.4128C16.1991 30.5258 15.2037 30.3941 14.2843 30.0295C13.3648 29.6649 12.5498 29.0786 11.9117 28.3228C11.5837 27.9593 11.1902 27.6607 10.7517 27.4428C10.6243 27.41 10.5046 27.3524 10.3995 27.2733C10.2944 27.1942 10.2059 27.0952 10.139 26.9819C10.0722 26.8686 10.0283 26.7433 10.0099 26.613C9.99145 26.4828 9.99887 26.3502 10.0317 26.2228C10.0645 26.0954 10.1221 25.9758 10.2012 25.8706C10.2803 25.7655 10.3793 25.677 10.4926 25.6101C10.6059 25.5433 10.7312 25.4994 10.8615 25.481C10.9917 25.4626 11.1243 25.47 11.2517 25.5028C12.0209 25.783 12.7083 26.2504 13.2517 26.8628C14.2517 27.8628 15.2517 28.7428 17.1517 28.3828C17.1183 27.8459 17.1966 27.3079 17.3817 26.8028C15.3217 26.2828 12.3817 24.8028 12.3817 19.8028C12.3791 18.6184 12.727 17.4598 13.3817 16.4728C13.5033 16.2906 13.5499 16.0685 13.5117 15.8528C13.3096 14.7734 13.4242 13.6585 13.8417 12.6428C13.8984 12.5074 13.9843 12.3861 14.0932 12.2876C14.202 12.1891 14.3313 12.1157 14.4717 12.0728C14.8117 11.9728 16.0317 11.7728 18.3417 13.2728C20.2117 12.8228 22.1617 12.8228 24.0317 13.2728C26.3417 11.7728 27.5617 11.9628 27.8917 12.0728C28.0321 12.1157 28.1614 12.1891 28.2702 12.2876C28.3791 12.3861 28.465 12.5074 28.5217 12.6428C28.94 13.6618 29.0546 14.7801 28.8517 15.8628C28.8312 15.9604 28.8304 16.061 28.8493 16.1589C28.8682 16.2568 28.9064 16.3499 28.9617 16.4328C29.6183 17.4226 29.9663 18.585 29.9617 19.7728C29.9617 24.8428 27.0417 26.3128 24.9617 26.7728C25.1449 27.3094 25.2197 27.8771 25.1817 28.4428V30.9828C25.1822 31.238 25.0851 31.4836 24.9103 31.6695C24.7356 31.8554 24.4964 31.9675 24.2417 31.9828Z" fill="white"/>
</svg>
