<svg width="141" height="33" viewBox="0 0 141 33" fill="none" xmlns="http://www.w3.org/2000/svg">
<path d="M4.45139 10.6647L7.65901 8.79908C8.01905 8.76635 8.41182 8.73362 8.77186 8.73362C10.0484 8.73362 11.2267 8.99547 12.3068 9.48643L11.4231 14.1015C8.67367 11.974 4.45139 13.2832 4.45139 17.5382V26.8338H0V9.0282H4.45139V10.6647Z" fill="white"/>
<path d="M14.6074 9.0282H19.0588V26.8338H14.6074V9.0282Z" fill="white"/>
<path d="M31.2027 22.0878C31.3336 21.335 28.5842 20.0912 27.9951 19.7639C26.6204 19.142 24.2638 18.1928 23.3473 17.0145C22.4636 15.9344 22.0708 14.527 22.3326 13.1523C22.9873 10.0429 25.9985 8.73362 28.9115 8.73362C31.53 8.73362 33.9193 9.94466 35.5886 11.974L32.1192 14.9525C31.3009 13.8724 30.2862 13.185 28.9115 13.0541C28.4533 13.0214 27.9296 13.0541 27.5041 13.2832C27.3077 13.3814 27.0459 13.5778 27.0131 13.8396C26.915 14.5597 29.1406 15.4762 29.6971 15.738C32.4792 17.1127 36.4724 18.3565 35.9487 22.3824C35.5232 25.7209 32.021 27.1283 29.0425 27.1283C26.3258 27.1283 23.5437 25.6882 21.8417 23.5934L25.2457 20.5822C26.424 21.7605 28.0278 22.9715 29.7953 22.8079C30.188 22.7751 31.1045 22.5788 31.2027 22.0878Z" fill="white"/>
<path d="M38.8998 9.0282H43.3512V26.8338H38.8998V9.0282Z" fill="white"/>
<path d="M51.5019 10.6647L54.7095 8.79908C55.0696 8.76635 55.4624 8.73362 55.8224 8.73362C60.6993 8.73362 64.627 12.694 64.627 17.5382V26.8338H60.1756V17.5382C60.1756 15.1489 58.2445 13.2177 55.8224 13.2177C53.433 13.2177 51.5019 15.1489 51.5019 17.5382V26.8338H47.0505V9.0282H51.5019V10.6647Z" fill="white"/>
<path d="M75.3855 25.7864H72.9961C72.3415 25.7864 71.6214 26.2119 71.6214 26.8338C71.6214 29.7795 81.0806 27.4556 83.339 26.8338V31.6779C78.724 32.7908 64.8461 35.3438 67.5301 26.0482L70.1813 24.5426L70.7704 24.1826C68.6102 22.6442 67.2355 20.1239 67.2355 17.2764C67.2355 12.5631 71.065 8.73362 75.7782 8.73362C76.0401 8.73362 76.3019 8.73362 76.531 8.76635L79.8368 10.6647V9.0282H84.2882V17.8982H84.2555C83.9282 22.3169 80.2623 25.7864 75.7782 25.7864C75.6473 25.7864 75.5164 25.7864 75.3855 25.7864ZM75.7782 21.335C78.0039 21.335 79.8368 19.5021 79.8368 17.2764C79.8368 15.0179 78.0039 13.185 75.7782 13.185C73.5198 13.185 71.6869 15.0179 71.6869 17.2764C71.6869 19.5021 73.5198 21.335 75.7782 21.335Z" fill="white"/>
<path d="M112.06 3.95492C117.296 5.13323 121.191 9.81374 121.191 15.378C121.191 20.9749 117.296 25.6554 112.06 26.8338C111.241 27.0301 110.358 27.1283 109.474 27.1283H109.408C108.525 27.1283 107.674 27.0301 106.855 26.8338C101.618 25.6554 97.7235 20.9749 97.7235 15.378C97.7235 9.81374 101.618 5.13323 106.855 3.95492C107.674 3.75854 108.557 3.66035 109.441 3.66035C110.358 3.66035 111.209 3.75854 112.06 3.95492ZM109.441 22.6769C113.467 22.6769 116.74 19.4039 116.74 15.378C116.74 11.3848 113.467 8.11174 109.441 8.11174C105.415 8.11174 102.175 11.3848 102.175 15.378C102.175 19.4039 105.415 22.6769 109.441 22.6769Z" fill="white"/>
<path d="M136.425 14.8216C143.069 18.1601 140.647 27.1611 131.777 27.1283C128.668 27.1283 125.133 25.4918 122.907 22.7751L126.344 19.7639C128.504 22.2514 131.057 22.8406 132.857 22.6769C135.639 22.4151 136.458 19.8294 133.283 18.3892L128.635 16.2944C125.165 14.887 123.136 12.334 123.791 9.22458C124.576 5.42781 128.209 3.66035 131.646 3.66035C135.148 3.66035 138.094 5.32962 139.992 7.48985L136.556 10.5011C135.868 9.74828 135.148 9.12639 134.428 8.70089C130.501 6.34427 126.344 9.48643 129.519 11.5157C130.959 12.4649 134.625 13.9378 136.425 14.8216Z" fill="white"/>
<path d="M19.598 4.45861C19.598 6.03708 18.3184 7.31669 16.74 7.31669C15.1615 7.31669 13.8819 6.03708 13.8819 4.45861C13.8819 2.88013 15.1615 1.60052 16.74 1.60052C18.3184 1.60052 19.598 2.88013 19.598 4.45861Z" fill="white" fill-opacity="0.1"/>
<path d="M19.598 3.77267C19.598 5.35114 18.3184 6.63075 16.74 6.63075C15.1615 6.63075 13.8819 5.35114 13.8819 3.77267C13.8819 2.19419 15.1615 0.914586 16.74 0.914586C18.3184 0.914586 19.598 2.19419 19.598 3.77267Z" fill="white" fill-opacity="0.3"/>
<path d="M19.598 4.28712C19.598 5.8656 18.3184 7.1452 16.74 7.1452C15.1615 7.1452 13.8819 5.8656 13.8819 4.28712C13.8819 2.70865 15.1615 1.42904 16.74 1.42904C18.3184 1.42904 19.598 2.70865 19.598 4.28712Z" fill="white" fill-opacity="0.2"/>
<path d="M19.598 3.23159C19.598 4.81006 18.3184 6.08967 16.74 6.08967C15.1615 6.08967 13.8819 4.81006 13.8819 3.23159C13.8819 1.65311 15.1615 0.373505 16.74 0.373505C18.3184 0.373505 19.598 1.65311 19.598 3.23159Z" fill="white" fill-opacity="0.5"/>
<path d="M19.5315 2.76393C19.5315 4.29041 18.2941 5.52787 16.7676 5.52787C15.2411 5.52787 14.0037 4.29041 14.0037 2.76393C14.0037 1.23746 15.2411 0 16.7676 0C18.2941 0 19.5315 1.23746 19.5315 2.76393Z" fill="white"/>
<path d="M43.9229 4.45861C43.9229 6.03708 42.6433 7.31669 41.0649 7.31669C39.4864 7.31669 38.2068 6.03708 38.2068 4.45861C38.2068 2.88013 39.4864 1.60052 41.0649 1.60052C42.6433 1.60052 43.9229 2.88013 43.9229 4.45861Z" fill="white" fill-opacity="0.1"/>
<path d="M43.9229 3.77267C43.9229 5.35114 42.6433 6.63075 41.0649 6.63075C39.4864 6.63075 38.2068 5.35114 38.2068 3.77267C38.2068 2.19419 39.4864 0.914586 41.0649 0.914586C42.6433 0.914586 43.9229 2.19419 43.9229 3.77267Z" fill="white" fill-opacity="0.3"/>
<path d="M43.9229 4.28712C43.9229 5.8656 42.6433 7.1452 41.0649 7.1452C39.4864 7.1452 38.2068 5.8656 38.2068 4.28712C38.2068 2.70865 39.4864 1.42904 41.0649 1.42904C42.6433 1.42904 43.9229 2.70865 43.9229 4.28712Z" fill="white" fill-opacity="0.2"/>
<path d="M43.9229 3.23159C43.9229 4.81006 42.6433 6.08967 41.0649 6.08967C39.4864 6.08967 38.2068 4.81006 38.2068 3.23159C38.2068 1.65311 39.4864 0.373505 41.0649 0.373505C42.6433 0.373505 43.9229 1.65311 43.9229 3.23159Z" fill="white" fill-opacity="0.5"/>
<path d="M43.8564 2.76393C43.8564 4.29041 42.619 5.52787 41.0925 5.52787C39.566 5.52787 38.3286 4.29041 38.3286 2.76393C38.3286 1.23746 39.566 0 41.0925 0C42.619 0 43.8564 1.23746 43.8564 2.76393Z" fill="white"/>
</svg>
